<mxfile host="app.diagrams.net" modified="2023-11-30T13:48:34.564Z" agent="Mozilla/5.0 (Macintosh; Intel Mac OS X 10_15_6) AppleWebKit/605.1.15 (KHTML, like Gecko) Version/14.0.1 Safari/605.1.15" version="22.1.5" etag="OKZg6cDedb7ywmPTZoyc" type="github">
  <diagram name="Page-1" id="GBvbI8wFCj357S28_C-m">
    <mxGraphModel>
      <root>
        <mxCell id="0" />
        <mxCell id="1" parent="0" />
      </root>
    </mxGraphModel>
  </diagram>
</mxfile>
